OpenSim_Sub04_EMGStiffKnee_GRF.mot
version=1
nRows=36
nColumns=19
inDegrees=no
endheader
time	lFx	lFy	lFz	lCOPx	lCOPy	lCOPz	rFx	rFy	rFz	rCOPx	rCOPy	rCOPz	lMx	lMy	lMz	rMx	rMy	rMz
0	2.84488794	344.90597462	20.72143196	0.74527998	0	-0.66395315	2.81858794	341.71343665	-21.87966702	0.75537027	0	-0.41180422	0	-2.64135601	0	0	-0.86780538	0
0.01000000	3.41668238	343.84032097	20.62033714	0.74381874	0	-0.66369455	2.20075219	342.23745522	-22.17368702	0.75545508	0	-0.41193351	0	-2.27210239	0	0	-0.76942577	0
0.02000000	3.68240095	343.34584325	20.56720076	0.74302059	0	-0.66352948	1.89561469	343.03791248	-22.36308215	0.75549967	0	-0.41202323	0	-2.07896083	0	0	-0.71767502	0
0.03000000	3.73545102	343.28038881	20.55570877	0.74279007	0	-0.66349235	1.81084417	343.99530370	-22.45964472	0.75566120	0	-0.41205151	0	-2.03002416	0	0	-0.71750696	0
0.04000000	3.68782230	343.32473356	20.56554018	0.74273057	0	-0.66349598	1.81926540	344.86923742	-22.50499193	0.75577564	0	-0.41206211	0	-2.04175761	0	0	-0.73151992	0
0.05000000	3.59882295	343.19538113	20.55112629	0.74273115	0	-0.66350376	1.82769455	345.50749867	-22.53637836	0.75575367	0	-0.41207871	0	-2.05594904	0	0	-0.72242606	0
0.06000000	3.48797507	342.83563913	20.49598432	0.74282042	0	-0.66353215	1.80792303	345.94817275	-22.55017394	0.75565328	0	-0.41207707	0	-2.06878415	0	0	-0.69884940	-0.00000000
0.07000000	3.35729243	342.34952029	20.42639184	0.74302503	0	-0.66359643	1.74971710	346.20923842	-22.54172407	0.75558212	0	-0.41206730	0	-2.08167813	0	0	-0.67386866	0
0.08000000	3.21376718	341.79676098	20.37365613	0.74330839	0	-0.66366708	1.64740677	346.31622333	-22.54162253	0.75558942	0	-0.41206120	0	-2.09644455	0	0	-0.64737599	0
0.09000000	3.04827542	341.21432579	20.36277956	0.74357424	0	-0.66369763	1.50409609	346.40934095	-22.56198438	0.75564641	0	-0.41201258	0	-2.11971098	0	0	-0.64204731	0
0.10000000	2.87001224	340.69340442	20.39876939	0.74370180	0	-0.66367671	1.35789987	346.57349882	-22.60566106	0.75571363	0	-0.41194835	0	-2.13633437	0	0	-0.65953479	0
0.11000000	2.70798554	340.27461533	20.46316731	0.74368382	0	-0.66362627	1.25504686	346.76338028	-22.66361014	0.75573298	0	-0.41194114	0	-2.13177097	0	0	-0.67550371	0
0.12000000	2.58035488	339.89412015	20.51046988	0.74367358	0	-0.66357770	1.22731365	346.97879404	-22.71416720	0.75568711	0	-0.41198185	0	-2.12327003	0	0	-0.68268910	0
0.13000000	2.47161985	339.53520164	20.51301794	0.74369394	0	-0.66356969	1.23648374	347.22986384	-22.73247363	0.75557506	0	-0.41198752	0	-2.10403855	0	0	-0.67881003	-0.00000000
0.14000000	2.36365556	339.17426473	20.48170348	0.74368781	0	-0.66355556	1.23841827	347.51165590	-22.72377813	0.75550043	0	-0.41194818	0	-2.07109671	0	0	-0.67247838	0
0.15000000	2.26256212	338.87400515	20.47446566	0.74361152	0	-0.66349833	1.21051373	347.80901486	-22.70884912	0.75543979	0	-0.41188883	0	-2.04309074	0	0	-0.66857609	0
0.16000000	2.18235875	338.67472670	20.47587727	0.74350342	0	-0.66344478	1.17792230	348.08337782	-22.71093653	0.75534243	0	-0.41185603	0	-2.02592381	0	0	-0.65883005	0
0.17000000	2.11969882	338.56286899	20.43503699	0.74340730	0	-0.66344558	1.15921058	348.35617804	-22.73280892	0.75523849	0	-0.41187170	0	-2.01877106	0	0	-0.66003378	0
0.18000000	2.08397050	338.55684875	20.38298936	0.74347756	0	-0.66351219	1.15360467	348.66285650	-22.77318193	0.75516687	0	-0.41190664	0	-2.00779891	0	0	-0.67213904	0
0.19000000	2.08152208	338.69205418	20.37258772	0.74365829	0	-0.66358821	1.14926762	348.88670233	-22.83554042	0.75506819	0	-0.41196314	0	-1.99357908	0	0	-0.67716602	0
0.20000000	2.09176708	339.03599334	20.44511289	0.74389411	0	-0.66362077	1.11068365	348.94228521	-22.92781839	0.75485247	0	-0.41201865	0	-1.98179834	0	0	-0.66720039	0
0.21000000	2.11079977	339.62297222	20.60544028	0.74416672	0	-0.66362519	1.06485464	348.80984835	-23.03558218	0.75457846	0	-0.41207908	0	-1.98416334	0	0	-0.63988598	0
0.22000000	2.15586353	340.32830185	20.81595557	0.74438055	0	-0.66363542	1.04128878	348.58588556	-23.15047258	0.75441628	0	-0.41210361	0	-2.00034354	0	0	-0.61114895	0
0.23000000	2.21832078	341.02121924	21.03544046	0.74453097	0	-0.66364411	1.04284614	348.37828280	-23.29185580	0.75436717	0	-0.41206281	0	-2.01706409	0	0	-0.58643367	0
0.24000000	2.29025827	341.57359580	21.23176495	0.74464097	0	-0.66365050	1.06381152	348.23887161	-23.48320061	0.75442854	0	-0.41201246	0	-2.02156153	0	0	-0.57219231	0
0.25000000	2.35939388	341.90272152	21.39617282	0.74467374	0	-0.66363657	1.09292695	348.22788613	-23.72933215	0.75445700	0	-0.41195921	0	-2.00926488	0	0	-0.56670797	0
0.26000000	2.43563267	341.98920781	21.49217412	0.74466760	0	-0.66361622	1.12476851	348.43226044	-24.00689396	0.75438974	0	-0.41190095	0	-1.98577288	0	0	-0.58865216	0
0.27000000	2.50944285	341.84637385	21.49091628	0.74468667	0	-0.66361206	1.15652940	348.80832379	-24.27721711	0.75426974	0	-0.41183855	0	-1.96015489	0	0	-0.63017049	0
0.28000000	2.53416446	341.52281283	21.40582356	0.74466989	0	-0.66360688	1.18140054	349.19541941	-24.49859022	0.75418817	0	-0.41178444	0	-1.94073458	0	0	-0.65822376	0
0.29000000	2.49915676	341.11928642	21.26288483	0.74450713	0	-0.66358527	1.19785399	349.48334831	-24.63460337	0.75414697	0	-0.41172623	0	-1.90772512	0	0	-0.65923305	0
0.30000000	2.43551954	340.75256505	21.12383788	0.74423729	0	-0.66355135	1.21351293	349.64578953	-24.70022524	0.75409999	0	-0.41170222	0	-1.85509031	0	0	-0.63803080	0
0.31000000	2.39497563	340.45782802	21.04590587	0.74391813	0	-0.66349037	1.23388359	349.77568965	-24.71758775	0.75404308	0	-0.41172646	0	-1.80420585	0	0	-0.60886523	0
0.32000000	2.39017000	340.23928358	21.06553063	0.74360063	0	-0.66340374	1.27280782	349.99135022	-24.69832125	0.75400072	0	-0.41178362	0	-1.76832504	0	0	-0.59278233	0
0.33000000	2.41020209	339.94982997	21.14571882	0.74345060	0	-0.66337969	1.33303765	350.39746861	-24.66055016	0.75393023	0	-0.41182519	0	-1.77117385	0	0	-0.58394865	0
0.34000000	2.43678452	339.40171807	21.21286934	0.74341577	0	-0.66343725	1.39858705	350.94182019	-24.62921018	0.75376526	0	-0.41185717	0	-1.79724202	0	0	-0.56568776	0
0.35000000	2.47434008	338.53078082	21.24385255	0.74332904	0	-0.66352505	1.47548374	351.52400062	-24.59319687	0.75357607	0	-0.41189094	0	-1.82522802	0	0	-0.53925405	0
